<svg width="272" height="40" viewBox="0 0 272 40" fill="none" xmlns="http://www.w3.org/2000/svg">
<g clip-path="url(#clip0_1_189)">
<mask id="mask0_1_189" style="mask-type:luminance" maskUnits="userSpaceOnUse" x="0" y="0" width="272" height="40">
<path d="M272 0H0V40H272V0Z" fill="white"/>
</mask>
<g mask="url(#mask0_1_189)">
<path d="M0 20L6.91655 31.5993L7.75468 30.2376L1.65199 20H0Z" fill="url(#paint0_linear_1_189)"/>
<path d="M34.849 38.5595H15.9874L15.0948 40H35.7779L35.7931 39.9788L34.8521 38.5505L34.849 38.5595Z" fill="url(#paint1_linear_1_189)"/>
<path d="M11.927 0L0 20H1.65199L12.7167 1.44348H34.8491L35.7598 0H11.927Z" fill="url(#paint2_linear_1_189)"/>
<path d="M35.7779 0H35.7598L34.8491 1.44348L45.9078 19.9879H47.6989L35.7779 0Z" fill="url(#paint3_linear_1_189)"/>
<path d="M47.6989 19.9879H45.9078L45.9136 20L34.8521 38.5505L35.7931 39.9788L47.7051 20L47.6989 19.9879Z" fill="url(#paint4_linear_1_189)"/>
<path d="M3.58838 39.9879H11.694L7.63969 33.3515L3.58838 39.9879Z" fill="#C0EDFA"/>
<path d="M7.63969 33.3515L11.694 39.9879L15.7453 33.3515H7.63969Z" fill="#8AD7EB"/>
<path d="M11.694 26.7181L7.63969 33.3515H15.7453L11.694 26.7181Z" fill="#08ADD8"/>
<path d="M19.7966 26.7181L15.7453 33.3515H23.8509L19.7966 26.7181Z" fill="#3CD1F8"/>
<path d="M27.9023 26.7181L23.8509 33.3515H31.9536L27.9023 26.7181Z" fill="#B6F7F8"/>
<path d="M36.0079 26.7181L31.9535 20.0847L27.9023 26.7181H36.0079Z" fill="#8ADCC1"/>
<path d="M31.9536 20.0847H40.0592L36.0079 13.4513L31.9536 20.0847Z" fill="#8ADCC1"/>
<path d="M36.0079 13.4483L31.9535 6.81493L30.5799 9.06643L27.9023 13.4483H36.0079Z" fill="#B6F7F8"/>
<path d="M19.7996 13.4483H27.9023L23.8509 6.81798L19.7996 13.4483Z" fill="#3CD1F8"/>
<path d="M19.7996 13.4483L18.4895 11.3058L15.7483 6.81493L11.697 13.4483H19.7966H19.7996Z" fill="#8AD7EB"/>
<path d="M15.7453 33.3515L19.7966 26.7181H11.694L15.7453 33.3515Z" fill="#00BBEC"/>
<path d="M23.8509 33.3515L27.9023 26.7181H19.7966L23.8509 33.3515Z" fill="#71E1FE"/>
<path d="M31.9535 33.3515L36.0079 26.7181H27.9023L31.9535 33.3515Z" fill="#B6F8E1"/>
<path d="M40.0592 20.0847H31.9536L36.0079 26.7181L40.0592 20.0847Z" fill="#329E90"/>
<path d="M36.0079 13.4514V13.4483H36.0049L36.0079 13.4514Z" fill="#B6F8E1"/>
<path d="M36.0048 13.4483H27.9023V13.4513L31.9535 20.0817L36.0048 13.4483Z" fill="#B6F8E1"/>
<path d="M27.9023 13.4483L30.5799 9.06643L31.9536 6.81493H23.8509V6.81798L27.9023 13.4513V13.4483Z" fill="#71E1FE"/>
<path d="M23.8509 6.81493H23.854H15.7484L18.4896 11.3058L19.7997 13.4483L23.8479 6.81493L23.8509 6.81798V6.81493Z" fill="#00BBEC"/>
<path d="M19.7996 13.4483L23.8509 6.81798L23.8479 6.81493L19.7996 13.4483Z" fill="#00BBEC"/>
<path d="M11.697 13.4483H11.694L15.7483 20.0847L19.7997 13.4483H19.7966H11.697Z" fill="#C0EDFA"/>
<path d="M272 8.49147C272 8.03753 272 8.02845 271.537 8.07386C269.359 8.28264 267.752 9.38417 266.79 11.3179C264.675 15.5666 262.618 19.8456 260.539 24.1156C259.967 25.2867 259.398 26.4579 258.79 27.6986C258.69 27.511 258.624 27.396 258.566 27.2779C255.952 21.967 253.347 16.653 250.721 11.3452C249.756 9.39629 248.173 8.29777 246.001 8.07687C245.535 8.03146 245.535 8.04054 245.535 8.49749C245.535 16.6803 245.535 24.86 245.535 33.0428C245.535 33.4755 245.565 33.4998 245.986 33.4241C247.262 33.1911 248.137 32.1471 248.14 30.8458C248.14 24.6966 248.14 18.5474 248.14 12.4013C248.14 12.2742 248.14 12.1501 248.14 12.023L248.216 12.0079C251.725 19.1375 255.238 26.2672 258.784 33.4725C262.327 26.1825 265.825 18.9802 269.322 11.7809L269.386 11.8051V12.2015C269.386 18.4113 269.386 24.621 269.386 30.8277C269.386 32.1289 270.257 33.182 271.528 33.4211C271.976 33.5058 272 33.4847 272 33.0398C272 24.857 272 16.6773 272 8.49448V8.49147Z" fill="#01BAEB"/>
<path d="M210.408 9.23588C207.806 7.81963 204.998 7.52309 202.105 7.98911C199.416 8.42186 197.107 9.63839 195.231 11.6024C192.78 14.1686 191.627 17.2765 191.57 20.8171C191.633 21.5131 191.661 22.2182 191.764 22.9082C192.251 26.1401 193.737 28.8273 196.266 30.8942C199.107 33.2123 202.396 34.0233 206.008 33.6027C209.33 33.2153 212.084 31.7295 214.195 29.1391C216.616 26.1704 217.506 22.7266 217.034 18.956C216.489 14.6043 214.265 11.336 210.408 9.23588ZM208.922 30.1014C204.278 32.5465 197.621 31.0365 195.207 24.8842C193.634 20.8715 194.133 17.0283 196.913 13.642C198.577 11.6175 200.795 10.5311 203.418 10.3283C206.856 10.062 209.721 11.218 211.929 13.869C213.602 15.8753 214.359 18.2358 214.362 21.5373C214.238 24.9297 212.601 28.1677 208.919 30.1044L208.922 30.1014Z" fill="#01BAEB"/>
<path d="M233.662 22.4694C235.668 21.9458 237.329 20.923 238.425 19.1133C239.19 17.8484 239.402 16.4412 239.32 14.9947C239.202 12.9127 238.407 11.1545 236.721 9.86231C235.006 8.54895 233.015 8.08594 230.903 8.07081C227.974 8.04961 225.045 8.06474 222.116 8.06474C221.804 8.06474 221.648 8.22009 221.648 8.53081C221.648 16.6894 221.648 24.8449 221.648 33.0035C221.648 33.064 221.654 33.1245 221.648 33.185C221.62 33.3969 221.72 33.4483 221.917 33.4453C222.571 33.4362 223.224 33.4181 223.877 33.4513C224.244 33.4695 224.301 33.3485 224.301 33.0126C224.292 25.6529 224.295 18.2962 224.286 10.9366C224.286 10.64 224.35 10.5523 224.658 10.5553C226.207 10.5734 227.756 10.5462 229.305 10.5704C230.246 10.5856 231.193 10.6158 232.125 10.7187C233.196 10.8367 234.201 11.1817 235.033 11.911C237.659 14.2109 236.942 18.608 233.708 20.0726C232.476 20.6294 231.169 20.7414 229.844 20.7293C229.384 20.7263 229.045 20.9139 228.839 21.3134C228.634 21.7128 228.679 22.1032 228.949 22.4724C231 25.2716 233.042 28.0769 235.099 30.8761C235.998 32.1017 237.199 32.9006 238.673 33.2668C239.16 33.3878 239.671 33.4151 240.171 33.4847L240.198 33.3727C237.614 29.829 235.027 26.2854 232.431 22.7235C232.867 22.6358 233.272 22.5723 233.665 22.4694H233.662Z" fill="#01BAEB"/>
<path d="M136.519 21.3678C135.166 20.2088 133.545 19.6974 131.847 19.3554C130.522 19.0861 129.176 18.8955 127.875 18.5414C124.299 17.573 124.144 13.639 126.123 11.7386C127.106 10.7944 128.256 10.3405 129.602 10.2436C131.99 10.0741 133.944 10.8277 135.378 12.8007C136.11 13.8085 137.124 14.108 138.319 13.9356C138.573 13.8992 138.628 13.8297 138.558 13.5694C137.899 11.0607 136.359 9.33576 133.959 8.38553C132.431 7.78335 130.831 7.64714 129.215 7.81662C127.155 8.03452 125.357 8.84248 123.908 10.3677C121.754 12.6313 121.784 16.181 123.082 18.1782C124.011 19.6096 125.354 20.5236 126.955 21.0108C128.174 21.383 129.436 21.6342 130.689 21.8853C132.074 22.1607 133.39 22.5511 134.588 23.35C136.676 24.742 136.534 28.0739 135.121 29.4175C133.378 31.0758 131.275 31.4783 129 30.9911C127.179 30.6007 125.802 29.5113 124.825 27.9165C124.202 26.8997 123.309 26.352 122.09 26.3913C121.521 26.4095 121.439 26.476 121.572 27.0086C121.708 27.5443 121.835 28.1011 122.083 28.5883C123.823 31.9867 126.704 33.5452 129.772 33.6995C132.168 33.6995 133.817 33.3545 135.342 32.4981C139.442 30.1922 140.235 24.5393 136.525 21.3618L136.519 21.3678Z" fill="#01BAEB"/>
<path d="M95.4584 33.4847C96.363 33.4847 97.207 33.4755 98.0482 33.4907C98.3025 33.4967 98.4294 33.4151 98.5444 33.182C99.5429 31.1424 100.56 29.1088 101.567 27.0752C103.122 23.934 104.674 20.7929 106.23 17.6547C106.835 16.4321 107.446 15.2126 108.078 13.9386C109.833 17.4852 111.564 20.9835 113.321 24.5362H112.847C111.406 24.5362 109.966 24.5605 108.526 24.5302C107.152 24.4999 106.127 25.0719 105.373 26.1825C105.216 26.4155 105.092 26.6727 104.919 26.9753H105.398C108.338 26.9753 111.279 26.9783 114.22 26.9693C114.471 26.9693 114.598 27.0449 114.71 27.2719C115.545 28.9756 116.395 30.6703 117.246 32.368C117.43 32.7341 117.542 33.2304 117.842 33.4151C118.144 33.5996 118.637 33.4755 119.049 33.4816C119.588 33.4877 120.126 33.4816 120.728 33.4816C116.514 24.9901 112.335 16.5713 108.111 8.06474C103.876 16.5744 99.6818 24.9993 95.4584 33.4816V33.4847Z" fill="#01BAEB"/>
<path d="M72.2667 9.97731C70.5572 8.60948 68.5605 8.08894 66.4154 8.0708C63.5714 8.04659 60.7273 8.0708 57.8833 8.05872C57.5593 8.05872 57.4563 8.13434 57.4563 8.47632C57.4687 12.5677 57.4654 16.6591 57.4654 20.7505C57.4654 24.8419 57.4715 28.9333 57.4563 33.0247C57.4563 33.3848 57.5564 33.4695 57.8981 33.4544C58.4911 33.4241 59.0875 33.4181 59.6772 33.4544C60.0646 33.4816 60.119 33.3424 60.119 32.9944C60.1099 25.6468 60.1128 18.2993 60.1038 10.9517C60.1038 10.631 60.1796 10.5523 60.5002 10.5583C62.1462 10.5765 63.7922 10.5432 65.4383 10.5765C66.3066 10.5946 67.1807 10.6461 68.0342 10.8004C71.9675 11.5146 72.9838 15.6998 71.4408 18.3023C70.4637 19.9485 68.9054 20.7293 67.0719 20.9351C65.8739 21.0713 64.6573 21.047 63.4502 21.0561C63.0809 21.0592 63.0117 21.1863 63.0809 21.501C63.3715 22.8446 64.0585 23.3833 65.1506 23.4922C66.2188 23.5951 67.2776 23.4922 68.3243 23.2682C70.155 22.8809 71.7829 22.0911 73.0444 20.6778C74.4695 19.083 74.9991 17.1705 74.8416 15.0673C74.6904 13.0277 73.9008 11.2816 72.2729 9.97731H72.2667Z" fill="#01BAEB"/>
<path d="M188.838 8.05566C183.864 8.06779 178.893 8.06779 173.918 8.05566C173.586 8.05566 173.498 8.14342 173.498 8.47632C173.51 12.5677 173.504 16.6561 173.504 20.7475C173.504 24.8388 173.507 28.9514 173.495 33.0549C173.495 33.3818 173.583 33.4604 173.897 33.4483C174.527 33.4241 175.156 33.4211 175.785 33.4483C176.097 33.4604 176.157 33.3606 176.155 33.067C176.142 29.5446 176.155 26.0251 176.139 22.5026C176.139 22.194 176.2 22.1002 176.53 22.1032C179.579 22.1183 182.629 22.1123 185.676 22.1123C186.868 22.1123 187.851 21.3194 188.097 20.1634C188.19 19.7186 188.166 19.6853 187.721 19.6853C183.994 19.6853 180.269 19.6823 176.542 19.6913C176.23 19.6913 176.136 19.6278 176.139 19.2979C176.155 16.5259 176.155 13.754 176.139 10.985C176.139 10.631 176.23 10.5553 176.575 10.5553C180.678 10.5674 184.777 10.5614 188.88 10.5704C189.137 10.5704 189.24 10.5281 189.228 10.2406C189.204 9.64746 189.204 9.0543 189.228 8.46119C189.24 8.15253 189.171 8.05566 188.838 8.05566Z" fill="#01BAEB"/>
<path d="M157.127 8.06779C151.49 8.06173 145.85 8.06779 140.213 8.05872C139.929 8.05872 139.868 8.14948 139.899 8.41579C140.026 9.56878 141.1 10.5583 142.27 10.5614C144.159 10.5674 146.047 10.5734 147.932 10.5553C148.282 10.5523 148.395 10.6188 148.395 11.0002C148.376 14.6557 148.385 18.3084 148.385 21.964V23.3439C148.385 26.588 148.388 29.829 148.379 33.0731C148.379 33.3787 148.461 33.4604 148.761 33.4483C149.378 33.4241 149.995 33.4181 150.612 33.4483C150.972 33.4665 151.072 33.3757 151.072 33.0004C151.06 25.6559 151.066 18.3114 151.054 10.9638C151.054 10.6218 151.151 10.5523 151.475 10.5523C154.04 10.5644 156.603 10.5523 159.169 10.5704C159.547 10.5734 159.553 10.4191 159.514 10.1468C159.335 8.96956 158.318 8.06474 157.132 8.06173L157.127 8.06779Z" fill="#01BAEB"/>
<path d="M93.5371 30.9336C89.8095 30.9487 86.0847 30.9396 82.3575 30.9517C82.0364 30.9517 81.9581 30.873 81.961 30.5523C81.973 27.393 81.9701 24.2336 81.9701 21.0773C81.9701 17.5912 81.9701 14.105 81.9701 10.6219C81.9701 9.39023 80.9443 8.23724 79.7492 8.08293C79.4133 8.04054 79.3197 8.12227 79.3197 8.47027C79.3317 12.5738 79.3288 16.6742 79.3288 20.7777C79.3288 24.8691 79.3317 28.9575 79.3226 33.0489C79.3226 33.3575 79.3832 33.4574 79.7129 33.4544C81.5163 33.4362 83.3194 33.4453 85.1228 33.4453C87.9549 33.4453 90.7866 33.4393 93.6158 33.4513C93.9212 33.4513 94.0061 33.3696 93.9937 33.0701C93.9698 32.5132 93.9665 31.9564 93.9937 31.3996C94.0119 31.0425 93.9241 30.9306 93.5429 30.9336H93.5371Z" fill="#01BAEB"/>
<path d="M165.547 20.7687C165.547 16.6561 165.547 12.5405 165.553 8.42792C165.553 8.15555 165.501 8.0466 165.202 8.05872C164.597 8.08293 163.992 8.06474 163.386 8.06474C163.064 8.06474 162.902 8.22717 162.902 8.55196C162.902 15.497 162.902 22.4421 162.902 29.3872C162.902 30.634 162.908 31.8808 162.896 33.1245C162.896 33.3787 162.969 33.4544 163.22 33.4453C163.873 33.4271 164.527 33.4211 165.181 33.4453C165.486 33.4574 165.556 33.3666 165.556 33.067C165.544 28.9666 165.55 24.8631 165.55 20.7626L165.547 20.7687Z" fill="#01BAEB"/>
</g>
</g>
<defs>
<linearGradient id="paint0_linear_1_189" x1="3.411" y1="19.3968" x2="5.59439" y2="31.7772" gradientUnits="userSpaceOnUse">
<stop stop-color="#00BBEC"/>
<stop offset="0.03" stop-color="#00BBEC"/>
<stop offset="0.06" stop-color="#19C0EB"/>
<stop offset="0.1" stop-color="#49C9EB"/>
<stop offset="0.15" stop-color="#6CD1EB"/>
<stop offset="0.18" stop-color="#82D5EB"/>
<stop offset="0.2" stop-color="#8AD7EB"/>
<stop offset="1" stop-color="#8AD7EB"/>
</linearGradient>
<linearGradient id="paint1_linear_1_189" x1="14.9617" y1="39.2707" x2="35.5813" y2="39.2707" gradientUnits="userSpaceOnUse">
<stop stop-color="#8AD7EB"/>
<stop offset="0.85" stop-color="#8AD7EB"/>
<stop offset="0.86" stop-color="#8AD8E1"/>
<stop offset="0.91" stop-color="#8ADACF"/>
<stop offset="0.95" stop-color="#8ADBC4"/>
<stop offset="1" stop-color="#8ADCC1"/>
</linearGradient>
<linearGradient id="paint2_linear_1_189" x1="9.28348" y1="3.49701" x2="25.3012" y2="14.7107" gradientUnits="userSpaceOnUse">
<stop stop-color="#00BBEC"/>
<stop offset="0.13" stop-color="#00BBEC"/>
<stop offset="0.24" stop-color="#00BBEC"/>
<stop offset="0.31" stop-color="#00BBEC"/>
<stop offset="0.91" stop-color="#00BBEC"/>
<stop offset="0.93" stop-color="#1EC1E9"/>
<stop offset="0.96" stop-color="#58CCE6"/>
<stop offset="0.99" stop-color="#7CD4E3"/>
<stop offset="1" stop-color="#8AD7E3"/>
</linearGradient>
<linearGradient id="paint3_linear_1_189" x1="32.7083" y1="5.01769" x2="50.4981" y2="15.2867" gradientUnits="userSpaceOnUse">
<stop stop-color="#8AD7DC"/>
<stop offset="0.01" stop-color="#8AD7D5"/>
<stop offset="0.04" stop-color="#8AD7D4"/>
<stop offset="0.06" stop-color="#8AD9CC"/>
<stop offset="0.12" stop-color="#8ADCC1"/>
<stop offset="1" stop-color="#8ADCC1"/>
</linearGradient>
<linearGradient id="paint4_linear_1_189" x1="34.9303" y1="30.3511" x2="47.7344" y2="30.3511" gradientUnits="userSpaceOnUse">
<stop stop-color="#8ADCC1"/>
<stop offset="1" stop-color="#8ADCC1"/>
</linearGradient>
<clipPath id="clip0_1_189">
<rect width="272" height="40" fill="white"/>
</clipPath>
</defs>
</svg>
